<svg class="card__title-icon"  xmlns="http://www.w3.org/2000/svg">
<g >
<path d="M3.20226 19.6855H1.64341L2.74571 18.5832C3.34005 17.9889 3.7112 17.2158 3.81098 16.3772C2.26005 15.3594 1.12594 14.0204 0.518853 12.4847C-0.0878053 10.9502 -0.164041 9.26103 0.29841 7.59969C0.853283 5.60624 2.15472 3.78927 3.9629 2.48345C5.92781 1.0645 8.3739 0.314453 11.0368 0.314453C14.3913 0.314453 17.2188 1.27823 19.2134 3.10152C21.0104 4.74414 22 6.9598 22 9.34041C22 10.497 21.7645 11.6224 21.3001 12.6853C20.8195 13.7852 20.1157 14.7645 19.2083 15.5961C17.211 17.4265 14.3853 18.3941 11.0367 18.3941C9.79367 18.3941 8.49654 18.2281 7.33845 17.9236C6.24226 19.0481 4.75685 19.6855 3.20226 19.6855ZM11.0368 1.60586C5.69729 1.60586 2.42096 4.79015 1.54251 7.946C0.712391 10.9283 1.93608 13.7462 4.81591 15.4841L5.13768 15.6783L5.12778 16.054C5.10816 16.7976 4.93089 17.5138 4.61359 18.1612C5.38624 17.8998 6.08734 17.4258 6.63636 16.7772L6.90936 16.4547L7.31422 16.5758C8.45035 16.9156 9.77236 17.1027 11.0368 17.1027C17.682 17.1027 20.7086 13.079 20.7086 9.34041C20.7086 7.32686 19.8682 5.44967 18.3421 4.0547C16.5895 2.45267 14.0633 1.60586 11.0368 1.60586Z" fill="#3563B7"/>
</g>
</svg>
