<svg class="card__title-icon" viewBox="0 0 21 21" fill="none" xmlns="http://www.w3.org/2000/svg">
<g clip-path="url(#clip0)">
<path d="M9.60108 19.3238H2.47749C2.21282 19.3238 1.97164 19.2011 1.8157 18.9872C1.65972 18.7731 1.61678 18.5058 1.69782 18.2537C2.50714 15.7375 4.9753 13.9802 7.69989 13.9802C8.96764 13.9802 10.1851 14.362 11.2206 15.0842C11.5915 15.3429 12.1018 15.2519 12.3606 14.881C12.6193 14.5101 12.5283 13.9998 12.1574 13.7411C11.6448 13.3835 11.0972 13.0919 10.5243 12.8692C11.2865 12.1762 11.7921 11.2058 11.88 10.1192C13.0357 8.99337 14.5506 8.3765 16.1745 8.3765C17.4422 8.3765 18.6597 8.75827 19.6952 9.48047C20.0661 9.73916 20.5765 9.64823 20.8352 9.27732C21.0939 8.90642 21.0029 8.39606 20.632 8.13734C20.1194 7.7798 19.5718 7.48814 18.9989 7.26547C19.8397 6.50102 20.3683 5.39901 20.3683 4.17584C20.3683 1.87331 18.495 0 16.1924 0C13.8898 0 12.0165 1.87331 12.0165 4.17592C12.0165 5.39413 12.5409 6.4922 13.3758 7.25628C13.2615 7.30025 13.1481 7.34701 13.0355 7.39655C12.5232 7.62202 12.0413 7.89879 11.5933 8.22437C10.9753 6.68977 9.47094 5.60376 7.71777 5.60376C5.41515 5.60376 3.54189 7.47707 3.54189 9.77968C3.54189 10.9943 4.06319 12.0895 4.89376 12.8533C2.67285 13.6856 0.872056 15.473 0.138943 17.7524C-0.104198 18.5083 0.0245913 19.31 0.492333 19.9518C0.959994 20.5935 1.68351 20.9615 2.47753 20.9615H9.60112C10.0534 20.9615 10.4199 20.5949 10.4199 20.1427C10.4199 19.6905 10.0533 19.3238 9.60108 19.3238ZM16.1925 1.63759C17.5921 1.63759 18.7308 2.77627 18.7308 4.17588C18.7308 5.5755 17.5921 6.71418 16.1925 6.71418C14.7928 6.71418 13.6542 5.5755 13.6542 4.17588C13.6542 2.77627 14.7928 1.63759 16.1925 1.63759ZM7.71781 7.24131C9.11743 7.24131 10.2561 8.37998 10.2561 9.7796C10.2561 11.1792 9.11743 12.3179 7.71781 12.3179C6.31819 12.3179 5.17952 11.1792 5.17952 9.7796C5.17952 8.37998 6.31819 7.24131 7.71781 7.24131Z" />
</g>
<path d="M18.8322 16.8737C19.0386 16.6902 19.0572 16.3742 18.8737 16.1678L15.8841 12.8045C15.7006 12.5981 15.3846 12.5795 15.1782 12.763C14.9718 12.9464 14.9532 13.2624 15.1367 13.4688L17.7941 16.4585L14.8045 19.1159C14.5981 19.2994 14.5795 19.6154 14.763 19.8218C14.9464 20.0282 15.2624 20.0468 15.4688 19.8633L18.8322 16.8737ZM9.97064 16.4991L18.4706 16.9991L18.5294 16.0009L10.0294 15.5009L9.97064 16.4991Z" />
<defs>
<clipPath id="clip0">
<rect width="21" height="21" fill="white"/>
</clipPath>
</defs>
</svg>
