<svg viewBox="0 0 12 12" fill="none" xmlns="http://www.w3.org/2000/svg">
<path d="M10.5404 11.6756H1.45935C1.1584 11.6752 0.869876 11.5555 0.657071 11.3427C0.444267 11.1299 0.324562 10.8414 0.324219 10.5404V1.45935C0.324562 1.1584 0.444267 0.869876 0.657071 0.657071C0.869876 0.444267 1.1584 0.324562 1.45935 0.324219H10.5404C10.8414 0.324562 11.1299 0.444267 11.3427 0.657071C11.5555 0.869876 11.6752 1.1584 11.6756 1.45935V10.5404C11.6752 10.8414 11.5555 11.1299 11.3427 11.3427C11.1299 11.5555 10.8414 11.6752 10.5404 11.6756ZM1.45935 0.648543C1.24439 0.648801 1.03831 0.734308 0.886308 0.886308C0.734308 1.03831 0.648801 1.24439 0.648543 1.45935V10.5404C0.648801 10.7554 0.734308 10.9615 0.886308 11.1135C1.03831 11.2655 1.24439 11.351 1.45935 11.3512H10.5404C10.7554 11.351 10.9615 11.2655 11.1135 11.1135C11.2655 10.9615 11.351 10.7554 11.3512 10.5404V1.45935C11.351 1.24439 11.2655 1.03831 11.1135 0.886308C10.9615 0.734308 10.7554 0.648801 10.5404 0.648543H1.45935Z" fill="#3563B7"/>
<path d="M10.0535 4.15364H9.72922V2.27013H7.8457V1.9458H9.89138C9.93439 1.9458 9.97563 1.96289 10.006 1.9933C10.0365 2.02371 10.0535 2.06495 10.0535 2.10796V4.15364Z" fill="#3563B7"/>
<path d="M6.85742 4.9126L9.77592 1.9941L10.0052 2.2234L7.08672 5.14189L6.85742 4.9126Z" fill="#3563B7"/>
<path d="M2.27061 4.15364H1.94629V2.10796C1.94629 2.06495 1.96337 2.02371 1.99379 1.9933C2.0242 1.96289 2.06544 1.9458 2.10845 1.9458H4.15413V2.27013H2.27061V4.15364Z" fill="#3563B7"/>
<path d="M1.99316 2.2229L2.22246 1.9936L5.14096 4.9121L4.91166 5.1414L1.99316 2.2229Z" fill="#3563B7"/>
<path d="M9.89138 10.054H7.8457V9.72971H9.72922V7.84619H10.0535V9.89187C10.0535 9.93488 10.0365 9.97612 10.006 10.0065C9.97563 10.0369 9.93439 10.054 9.89138 10.054Z" fill="#3563B7"/>
<path d="M6.85645 7.08765L7.08574 6.85835L10.0042 9.77685L9.77494 10.0061L6.85645 7.08765Z" fill="#3563B7"/>
<path d="M4.15413 10.054H2.10845C2.06544 10.054 2.0242 10.0369 1.99379 10.0065C1.96337 9.97612 1.94629 9.93488 1.94629 9.89187V7.84619H2.27061V9.72971H4.15413V10.054Z" fill="#3563B7"/>
<path d="M1.99219 9.77637L4.91068 6.85787L5.13998 7.08717L2.22148 10.0057L1.99219 9.77637Z" fill="#3563B7"/>
</svg>
