<svg class="card__title-icon" viewBox="0 0 20 20" fill="none" xmlns="http://www.w3.org/2000/svg">
<path d="M11.2391 11.1792C11.0451 11.085 10.8113 11.1658 10.7171 11.3599L8.56766 15.7859C8.4734 15.98 8.55434 16.2137 8.7484 16.3079C8.8034 16.3346 8.86153 16.3473 8.91875 16.3473C9.06364 16.3473 9.20285 16.2663 9.27043 16.1272L11.4198 11.7012C11.5141 11.5072 11.4331 11.2734 11.2391 11.1792Z" fill="#3563B7"/>
<path d="M8.97841 10.9598C8.49095 10.4724 7.69778 10.4724 7.21032 10.9598C6.72286 11.4473 6.72286 12.2405 7.21032 12.7279C7.45403 12.9716 7.77419 13.0935 8.09435 13.0935C8.4145 13.0935 8.73466 12.9716 8.97841 12.7279C9.46583 12.2404 9.46583 11.4473 8.97841 10.9598ZM8.42599 12.1755C8.24317 12.3583 7.94563 12.3583 7.76274 12.1755C7.57989 11.9926 7.57989 11.6951 7.76274 11.5123C7.85415 11.4208 7.97427 11.3751 8.09435 11.3751C8.21442 11.3751 8.3345 11.4208 8.42595 11.5122C8.6088 11.6951 8.6088 11.9926 8.42599 12.1755Z" fill="#3563B7"/>
<path d="M11.9059 14.406C11.572 14.406 11.258 14.536 11.0218 14.7722C10.5344 15.2596 10.5344 16.0528 11.0218 16.5403C11.258 16.7764 11.572 16.9064 11.9059 16.9064C12.2399 16.9064 12.5538 16.7764 12.7899 16.5403C13.2774 16.0528 13.2774 15.2596 12.7899 14.7722C12.5538 14.536 12.2399 14.406 11.9059 14.406ZM12.2375 15.9878C12.1489 16.0764 12.0311 16.1251 11.9059 16.1251C11.7806 16.1251 11.6629 16.0764 11.5743 15.9878C11.3914 15.8049 11.3914 15.5074 11.5743 15.3246C11.6629 15.236 11.7806 15.1872 11.9059 15.1872C12.0312 15.1872 12.149 15.236 12.2375 15.3246C12.4204 15.5074 12.4204 15.805 12.2375 15.9878Z" fill="#3563B7"/>
<path d="M17.8977 3.4375H14.3689C14.5377 3.1743 14.6361 2.86176 14.6361 2.52652V1.69223C14.6361 0.759141 13.877 0 12.9439 0C12.1702 0 11.4553 0.419688 11.0781 1.09531L10 3.02668L8.92188 1.09531C8.5448 0.419688 7.82984 0 7.05613 0C6.12305 0 5.36391 0.759141 5.36391 1.69223V2.52648C5.36391 2.86176 5.46231 3.17426 5.63117 3.43746H2.1023C1.50309 3.4375 1.01562 3.92496 1.01562 4.52418V7.19453C1.01562 7.6877 1.34594 8.10492 1.79688 8.23723V18.8281C1.79688 19.4743 2.32258 20 2.96875 20H17.0312C17.6774 20 18.2031 19.4743 18.2031 18.8281V8.23727C18.6541 8.10496 18.9844 7.68773 18.9844 7.19457V4.52422C18.9844 3.92496 18.4969 3.4375 17.8977 3.4375ZM11.7603 1.47609C11.9995 1.0475 12.453 0.78125 12.9439 0.78125C13.4462 0.78125 13.8548 1.18992 13.8548 1.69223V2.52648C13.8548 3.02879 13.4462 3.43746 12.9439 3.43746H10.6654L11.7603 1.47609ZM11.3281 7.5H8.67188V4.21875H11.3281V7.5ZM6.14512 2.52652V1.69223C6.14512 1.18992 6.55379 0.78125 7.05609 0.78125C7.54691 0.78125 8.00047 1.0475 8.23969 1.47609L9.33457 3.4375H7.05609C6.55379 3.4375 6.14512 3.02883 6.14512 2.52652ZM1.79688 4.52418C1.79688 4.35574 1.93391 4.21875 2.1023 4.21875H7.89062V7.5H2.1023C1.93387 7.5 1.79688 7.36297 1.79688 7.19457V4.52418ZM18.2031 7.19457C18.2031 7.36301 18.0661 7.5 17.8977 7.5H16.7578C16.5421 7.5 16.3672 7.67488 16.3672 7.89062C16.3672 8.10637 16.5421 8.28125 16.7578 8.28125H17.4219V18.8281C17.4219 19.0435 17.2466 19.2188 17.0312 19.2188H2.96875C2.75336 19.2188 2.57812 19.0435 2.57812 18.8281V8.28125H13.2422C13.4579 8.28125 13.6328 8.10637 13.6328 7.89062C13.6328 7.67488 13.4579 7.5 13.2422 7.5H12.1094V4.21875H17.8977C18.0661 4.21875 18.2031 4.35578 18.2031 4.52418V7.19457Z" fill="#3563B7"/>
<path d="M15 7.5C14.8973 7.5 14.7965 7.5418 14.7238 7.61445C14.6512 7.68711 14.6094 7.78789 14.6094 7.89062C14.6094 7.99336 14.6511 8.09414 14.7238 8.1668C14.7965 8.23945 14.8969 8.28125 15 8.28125C15.1027 8.28125 15.2035 8.23945 15.2761 8.1668C15.3488 8.09414 15.3906 7.99336 15.3906 7.89062C15.3906 7.78789 15.3488 7.68711 15.2761 7.61445C15.2035 7.5418 15.1027 7.5 15 7.5Z" fill="#3563B7"/>
</svg>
