<svg width="8" height="7" viewBox="0 0 8 7" fill="none" xmlns="http://www.w3.org/2000/svg">
<path d="M6.28571 4C5.71864 4 5.21892 4.24493 4.9067 4.61722L3.34657 3.9345C3.39488 3.79604 3.42857 3.65209 3.42857 3.49999C3.42857 3.3479 3.39488 3.20392 3.34657 3.06548L4.9067 2.38277C5.21892 2.75505 5.71864 2.99999 6.28571 2.99999C7.23102 2.99999 8 2.32713 8 1.49999C8 0.672843 7.23104 0 6.28571 0C5.34039 0 4.57143 0.672857 4.57143 1.5C4.57143 1.6521 4.60515 1.79605 4.65346 1.93448L3.09329 2.61722C2.78106 2.24494 2.28134 2.00001 1.71427 2.00001C0.768963 2.00001 0 2.67285 0 3.50001C0 4.32717 0.768963 5.00001 1.71429 5.00001C2.28136 5.00001 2.78108 4.75507 3.0933 4.38279L4.65343 5.06553C4.60512 5.20395 4.57143 5.3479 4.57143 5.50001C4.57143 6.32716 5.34039 7.00001 6.28571 7.00001C7.23104 7.00001 8 6.32716 8 5.50001C8 4.67287 7.23102 4 6.28571 4ZM6.28571 0.500005C6.91602 0.500005 7.42857 0.948741 7.42857 1.5C7.42857 2.05128 6.91601 2.5 6.28571 2.5C5.6554 2.5 5.14286 2.05126 5.14286 1.5C5.14286 0.948741 5.65542 0.500005 6.28571 0.500005ZM1.71429 4.5C1.08398 4.5 0.571434 4.05127 0.571434 3.50001C0.571434 2.94873 1.08399 2.50001 1.71429 2.50001C2.3446 2.50001 2.85714 2.94875 2.85714 3.50001C2.85714 4.05127 2.3446 4.5 1.71429 4.5ZM6.28571 6.49999C5.6554 6.49999 5.14286 6.05126 5.14286 5.5C5.14286 4.94874 5.65542 4.5 6.28571 4.5C6.91602 4.5 7.42857 4.94874 7.42857 5.5C7.42857 6.05127 6.91602 6.49999 6.28571 6.49999Z" fill="#9B99FF"/>
</svg>
