<svg class="card__title-icon" viewBox="0 0 24 24" fill="none" xmlns="http://www.w3.org/2000/svg">
<g clip-path="url(#clip0)">
<path d="M10.7581 11.028C11.5169 10.2524 11.9854 9.19167 11.9854 8.0235C11.9854 5.65279 10.0567 3.72412 7.68605 3.72412C5.31534 3.72412 3.38663 5.65284 3.38663 8.0235C3.38663 9.19167 3.85514 10.2524 4.61391 11.028C1.98619 11.5532 0 13.8777 0 16.6576V21.0306H15.3721V16.6576C15.3721 13.8777 13.3859 11.5532 10.7581 11.028ZM6.50939 12.3229H8.86275V12.7753C8.86275 13.4241 8.33489 13.952 7.68605 13.952C7.0372 13.952 6.50934 13.4241 6.50934 12.7753V12.3229H6.50939ZM7.6861 5.13032C9.28135 5.13032 10.5792 6.4282 10.5792 8.02345C10.5792 9.6187 9.28135 10.9166 7.6861 10.9166C6.0908 10.9166 4.79292 9.6187 4.79292 8.02345C4.79292 6.4282 6.0908 5.13032 7.6861 5.13032ZM13.9658 19.6243H11.6293V15.9736H10.2231V19.6243H5.14903V15.9736H3.74278V19.6243H1.40625V16.6576C1.40625 14.4841 3.0143 12.6793 5.10314 12.3699V12.7753C5.10314 14.1995 6.26184 15.3582 7.6861 15.3582C9.11034 15.3582 10.269 14.1995 10.269 12.7753V12.3699C12.3579 12.6793 13.9659 14.4841 13.9659 16.6576V19.6243H13.9658Z" fill="#3563B7"/>
<path d="M18.6981 2.96948C15.7748 2.96948 13.3965 5.34778 13.3965 8.27109C13.3965 11.1944 15.7748 13.5727 18.6981 13.5727C21.6215 13.5727 23.9997 11.1944 23.9997 8.27109C23.9997 5.34778 21.6215 2.96948 18.6981 2.96948ZM18.6981 12.1665C16.5502 12.1665 14.8027 10.419 14.8027 8.27109C14.8027 6.12319 16.5502 4.37573 18.6981 4.37573C20.8461 4.37573 22.5935 6.12314 22.5935 8.27109C22.5935 10.419 20.8461 12.1665 18.6981 12.1665Z" fill="#3563B7"/>
<path d="M16.5469 7.56787H20.8506V8.97412H16.5469V7.56787Z" fill="#3563B7"/>
</g>
<defs>
<clipPath id="clip0">
<rect width="24" height="24" fill="white"/>
</clipPath>
</defs>
</svg>
