<svg viewBox="0 0 20 20" fill="none" xmlns="http://www.w3.org/2000/svg">
<g clip-path="url(#clip0)">
<path d="M18.3333 9.66675H9.66667V18.3334C9.66667 18.5175 9.51742 18.6667 9.33333 18.6667C4.17867 18.6667 0 14.4881 0 9.33341C0 4.17875 4.17867 8.01086e-05 9.33333 8.01086e-05C14.488 8.01086e-05 18.6667 4.17875 18.6667 9.33341C18.6667 9.5175 18.5174 9.66675 18.3333 9.66675ZM9.33333 0.666748C4.54687 0.665623 0.66575 4.54487 0.664583 9.33133C0.6635 13.9897 4.34504 17.8157 9 17.9937V9.33341C9 9.14933 9.14925 9.00008 9.33333 9.00008H17.9937C17.809 4.34925 13.9878 0.672373 9.33333 0.666748Z" fill="#C3C5C2"/>
<path d="M10.6663 20C10.4823 20 10.333 19.8508 10.333 19.6667V10.6667C10.333 10.4826 10.4823 10.3333 10.6663 10.3333H19.6663C19.8504 10.3333 19.9997 10.4826 19.9997 10.6667C19.9938 15.8189 15.8186 19.9941 10.6663 20ZM10.9997 11V19.327C15.5219 19.147 19.1467 15.5223 19.3267 11H10.9997Z" fill="#C3C5C2"/>
</g>
<defs>
<clipPath id="clip0">
<rect width="20" height="20" fill="white" transform="matrix(1 0 0 -1 0 20)"/>
</clipPath>
</defs>
</svg>
