<svg viewBox="0 0 27 27" fill="none" xmlns="http://www.w3.org/2000/svg">
<path d="M18.6861 1.80378H15.4319C15.255 1.28013 14.7594 0.901916 14.1768 0.901916H13.2515C12.8337 0.340189 12.1721 0 11.4712 0C10.7702 0 10.1085 0.340189 9.69084 0.901863H8.76551C8.1829 0.901863 7.6873 1.28007 7.51043 1.80373H4.25603C3.27697 1.80373 2.48047 2.60028 2.48047 3.57929V22.5187C2.48047 23.4978 3.27702 24.2943 4.25603 24.2943H13.2748C13.5083 24.2943 13.6976 24.105 13.6976 23.8715C13.6976 23.6381 13.5083 23.4488 13.2748 23.4488H4.25603C3.74319 23.4488 3.32596 23.0315 3.32596 22.5187V3.57935C3.32596 3.0665 3.74319 2.64927 4.25603 2.64927H7.44087V4.03028C7.44087 4.26373 7.63014 4.45305 7.86365 4.45305H15.0787C15.3121 4.45305 15.5014 4.26379 15.5014 4.03028V2.64927H18.6861C19.199 2.64927 19.6162 3.0665 19.6162 3.57935V15.7547C19.6162 15.9882 19.8055 16.1775 20.039 16.1775C20.2724 16.1775 20.4617 15.9882 20.4617 15.7547V3.57935C20.4617 2.60028 19.6652 1.80378 18.6861 1.80378ZM14.6559 3.60751H8.28642V2.22813C8.28642 2.22755 8.28647 2.22708 8.28647 2.2265C8.28647 2.22623 8.28642 2.22592 8.28642 2.22571C8.28689 1.96182 8.50157 1.74735 8.76551 1.74735H9.91754C10.068 1.74735 10.2072 1.66736 10.2829 1.53721C10.5351 1.1041 10.9792 0.84549 11.4712 0.84549C11.9631 0.84549 12.4072 1.1041 12.6594 1.53721C12.735 1.6673 12.8743 1.74735 13.0248 1.74735H14.1768C14.4404 1.74735 14.6549 1.9614 14.6559 2.22486C14.6559 2.22544 14.6558 2.22592 14.6558 2.2265C14.6558 2.22761 14.656 2.22866 14.656 2.22977V3.60751H14.6559Z" fill="#878787"/>
<path d="M13.2747 21.645H5.12967V4.45297H6.0599C6.29336 4.45297 6.48268 4.2637 6.48268 4.03019C6.48268 3.79669 6.29341 3.60742 6.0599 3.60742H4.70695C4.4735 3.60742 4.28418 3.79669 4.28418 4.03019V22.0678C4.28418 22.3012 4.47344 22.4906 4.70695 22.4906H13.2747C13.5082 22.4906 13.6975 22.3013 13.6975 22.0678C13.6974 21.8343 13.5082 21.645 13.2747 21.645Z" fill="#878787"/>
<path d="M18.2346 3.60742H16.8818C16.6483 3.60742 16.459 3.79669 16.459 4.03019C16.459 4.2637 16.6482 4.45297 16.8818 4.45297H17.8118V15.7545C17.8118 15.988 18.0011 16.1773 18.2346 16.1773C18.4681 16.1773 18.6574 15.988 18.6574 15.7545V4.03019C18.6573 3.79674 18.468 3.60742 18.2346 3.60742Z" fill="#878787"/>
<path d="M19.5874 17.1357C16.8678 17.1357 14.6553 19.3483 14.6553 22.0679C14.6553 24.7875 16.8679 27 19.5874 27C22.307 27 24.5196 24.7875 24.5196 22.0679C24.5196 19.3483 22.307 17.1357 19.5874 17.1357ZM19.5874 26.1545C17.334 26.1545 15.5008 24.3213 15.5008 22.0679C15.5008 19.8145 17.334 17.9812 19.5874 17.9812C21.8408 17.9812 23.6741 19.8145 23.6741 22.0679C23.6741 24.3213 21.8409 26.1545 19.5874 26.1545Z" fill="#878787"/>
<path d="M11.4758 1.80371H11.4713C11.2378 1.80371 11.0508 1.99297 11.0508 2.22648C11.0508 2.45994 11.2423 2.64925 11.4758 2.64925C11.7092 2.64925 11.8985 2.45999 11.8985 2.22648C11.8986 1.99297 11.7093 1.80371 11.4758 1.80371Z" fill="#878787"/>
<path d="M22.141 20.4161C21.976 20.251 21.7082 20.251 21.5432 20.4161L18.6855 23.2737L17.1807 21.7689C17.0156 21.6038 16.7479 21.6038 16.5828 21.7689C16.4177 21.934 16.4177 22.2017 16.5828 22.3668L18.3866 24.1705C18.4691 24.2531 18.5773 24.2944 18.6855 24.2944C18.7937 24.2944 18.9019 24.2531 18.9844 24.1705L22.141 21.014C22.3061 20.8488 22.3061 20.5811 22.141 20.4161Z" fill="#878787"/>
<path d="M9.63858 9.35017V7.64485C10.2342 7.74684 10.5968 8.05027 10.5968 8.27181C10.5968 8.50526 10.7861 8.69458 11.0196 8.69458C11.2531 8.69458 11.4424 8.50532 11.4424 8.27181C11.4424 7.52451 10.6781 6.9207 9.63858 6.79039V6.73576C9.63858 6.50231 9.44932 6.31299 9.21581 6.31299C8.9823 6.31299 8.79304 6.50225 8.79304 6.73576V6.79039C7.75348 6.92065 6.98926 7.52446 6.98926 8.27181C6.98926 9.3304 7.98219 9.73719 8.79304 9.98362V11.6889C8.1974 11.587 7.8348 11.2835 7.8348 11.062C7.8348 10.8285 7.64554 10.6392 7.41203 10.6392C7.17852 10.6392 6.98926 10.8285 6.98926 11.062C6.98926 11.8093 7.75348 12.4131 8.79304 12.5434V12.598C8.79304 12.8315 8.9823 13.0208 9.21581 13.0208C9.44932 13.0208 9.63858 12.8315 9.63858 12.598V12.5434C10.6781 12.4131 11.4424 11.8093 11.4424 11.062C11.4423 10.0034 10.4494 9.5966 9.63858 9.35017ZM8.79304 9.09188C8.07986 8.84334 7.8348 8.61922 7.8348 8.27181C7.8348 8.13813 7.95271 7.99047 8.15827 7.86681C8.33198 7.76229 8.55236 7.68672 8.79304 7.64543V9.09188ZM10.2733 11.467C10.0996 11.5715 9.87926 11.6471 9.63858 11.6884V10.2419C10.3518 10.4904 10.5968 10.7146 10.5968 11.062C10.5968 11.1957 10.4789 11.3433 10.2733 11.467Z" fill="#878787"/>
<path d="M15.529 7.21509H13.2743C13.0409 7.21509 12.8516 7.40435 12.8516 7.63786C12.8516 7.87137 13.0408 8.06063 13.2743 8.06063H15.529C15.7625 8.06063 15.9518 7.87137 15.9518 7.63786C15.9518 7.40435 15.7626 7.21509 15.529 7.21509Z" fill="#878787"/>
<path d="M14.6271 9.0188H13.2743C13.0409 9.0188 12.8516 9.20806 12.8516 9.44157C12.8516 9.67508 13.0408 9.86434 13.2743 9.86434H14.6271C14.8606 9.86434 15.0499 9.67508 15.0499 9.44157C15.0499 9.20806 14.8606 9.0188 14.6271 9.0188Z" fill="#878787"/>
<path d="M15.529 10.8225H13.2743C13.0409 10.8225 12.8516 11.0118 12.8516 11.2453C12.8516 11.4788 13.0408 11.6681 13.2743 11.6681H15.529C15.7625 11.6681 15.9518 11.4788 15.9518 11.2453C15.9518 11.0118 15.7626 10.8225 15.529 10.8225Z" fill="#878787"/>
<path d="M8.31389 14.8811H7.41203C7.17857 14.8811 6.98926 15.0704 6.98926 15.3039C6.98926 15.5374 7.17852 15.7266 7.41203 15.7266H8.31389C8.54735 15.7266 8.73666 15.5374 8.73666 15.3039C8.73666 15.0704 8.54735 14.8811 8.31389 14.8811Z" fill="#878787"/>
<path d="M8.31389 18.4885H7.41203C7.17857 18.4885 6.98926 18.6778 6.98926 18.9113C6.98926 19.1448 7.17852 19.3341 7.41203 19.3341H8.31389C8.54735 19.3341 8.73666 19.1448 8.73666 18.9113C8.73666 18.6778 8.54735 18.4885 8.31389 18.4885Z" fill="#878787"/>
<path d="M8.31389 16.6848H7.41203C7.17857 16.6848 6.98926 16.8741 6.98926 17.1076C6.98926 17.3411 7.17852 17.5304 7.41203 17.5304H8.31389C8.54735 17.5304 8.73666 17.3411 8.73666 17.1076C8.73666 16.8741 8.54735 16.6848 8.31389 16.6848Z" fill="#878787"/>
<path d="M15.5294 14.8811H10.1181C9.88463 14.8811 9.69531 15.0704 9.69531 15.3039C9.69531 15.5374 9.88458 15.7266 10.1181 15.7266H15.5294C15.7628 15.7266 15.9521 15.5374 15.9521 15.3039C15.9521 15.0704 15.7629 14.8811 15.5294 14.8811Z" fill="#878787"/>
<path d="M14.1765 18.4885H10.1181C9.88463 18.4885 9.69531 18.6778 9.69531 18.9113C9.69531 19.1448 9.88458 19.3341 10.1181 19.3341H14.1765C14.41 19.3341 14.5993 19.1448 14.5993 18.9113C14.5993 18.6778 14.41 18.4885 14.1765 18.4885Z" fill="#878787"/>
<path d="M15.5294 16.6848H10.1181C9.88463 16.6848 9.69531 16.8741 9.69531 17.1076C9.69531 17.3411 9.88458 17.5304 10.1181 17.5304H15.5294C15.7628 17.5304 15.9521 17.3411 15.9521 17.1076C15.9521 16.8741 15.7629 16.6848 15.5294 16.6848Z" fill="#878787"/>
</svg>
