<svg viewBox="0 0 23 25" fill="none" xmlns="http://www.w3.org/2000/svg">
<path d="M18.0733 17.757L15.7525 16.9835L14.9194 15.3172C15.67 14.5532 16.1911 13.5424 16.3668 12.488L16.4708 11.8652H17.3594C18.1671 11.8652 18.8242 11.2081 18.8242 10.4004V7.32422C18.8242 3.28564 15.5386 0 11.5 0C7.45107 0 4.17578 3.27622 4.17578 7.32422V10.4004C4.17578 11.0369 4.58403 11.5797 5.15234 11.7812V12.3535C5.15234 13.1612 5.80947 13.8184 6.61719 13.8184H7.046C7.25767 14.2782 7.53164 14.7041 7.86504 15.0866C7.93418 15.1661 8.0063 15.2432 8.08018 15.3181L7.24746 16.9835L4.92661 17.757C2.22812 18.6568 0.269531 21.4976 0.269531 24.5117C0.269531 24.7814 0.488135 25 0.757812 25H22.2422C22.5118 25 22.7305 24.7814 22.7305 24.5117C22.7305 21.4976 20.7719 18.6568 18.0733 17.757ZM17.8477 10.4004C17.8477 10.6696 17.6286 10.8887 17.3594 10.8887H16.6142C16.7383 9.92725 16.821 8.90415 16.8542 7.89648C16.8552 7.86807 16.856 7.84043 16.8569 7.8125H17.8477V10.4004ZM5.64062 10.8887C5.37139 10.8887 5.15234 10.6696 5.15234 10.4004V7.8125H6.14346C6.14507 7.86343 6.14678 7.9146 6.14868 7.96611C6.14873 7.96787 6.14883 7.96958 6.14888 7.97134C6.14888 7.97148 6.14888 7.97163 6.14888 7.97178C6.18306 8.95185 6.2647 9.94839 6.38599 10.8886H5.64062V10.8887ZM6.61719 12.8418C6.34795 12.8418 6.12891 12.6228 6.12891 12.3535V11.8652H6.5292L6.63311 12.4882C6.65293 12.6066 6.67729 12.7246 6.70547 12.8418H6.61719ZM6.12974 6.83594H5.1709C5.41821 3.56343 8.14927 0.976562 11.5 0.976562C14.8358 0.976562 17.5789 3.56309 17.8291 6.83594H16.8703C16.8352 4.13931 14.6392 1.95312 11.9371 1.95312H11.063C8.36094 1.95312 6.16484 4.13931 6.12974 6.83594ZM11.063 2.92969H11.937C14.125 2.92969 15.8958 4.71929 15.8945 6.90479C15.8945 7.05845 15.8933 7.19224 15.8907 7.31396C15.8907 7.31553 15.8907 7.31714 15.8907 7.31875L15.2799 7.23149C13.6208 6.99458 12.0542 6.21128 10.8687 5.02583C10.7771 4.93428 10.6529 4.88281 10.5234 4.88281C9.21211 4.88281 7.95684 5.48027 7.12705 6.48965C7.33154 4.50142 9.01235 2.92969 11.063 2.92969ZM7.71777 12.8418C7.47334 12.0287 7.19365 9.63608 7.13184 8.10288L7.78901 7.22661C8.39258 6.42212 9.33159 5.92227 10.3305 5.86489C11.6448 7.11567 13.3451 7.94165 15.1418 8.19819L15.8607 8.30093C15.8126 9.3207 15.7145 10.344 15.5738 11.2852C15.5737 11.2855 15.5737 11.2858 15.5736 11.2862C15.5289 11.5888 15.4937 11.7835 15.4036 12.3274C15.145 13.8784 13.9877 15.281 12.4599 15.663C11.8312 15.82 11.1687 15.8199 10.5403 15.663C9.58638 15.4245 8.71167 14.7645 8.14717 13.8184H9.14258C9.34414 14.3867 9.88687 14.7949 10.5234 14.7949H11.5C12.3093 14.7949 12.9648 14.1395 12.9648 13.3301C12.9648 12.5224 12.3077 11.8652 11.5 11.8652H10.5234C9.87271 11.8652 9.33799 12.2855 9.14175 12.8418H7.71777ZM10.4824 16.6512C10.8173 16.7217 11.1587 16.7578 11.5 16.7578C11.7671 16.7578 12.0343 16.7354 12.2985 16.6921L11.4357 17.6045L10.4824 16.6512ZM10.7644 18.3144L9.21567 19.9522C8.78931 19.1361 8.42295 18.2867 8.12246 17.4172L8.70405 16.254L10.7644 18.3144ZM14.2132 16.0886L14.8774 17.4171C14.5765 18.2881 14.21 19.1378 13.7841 19.9529L12.1265 18.2953L14.2132 16.0886ZM10.0352 13.3301C10.0352 13.0605 10.2538 12.8418 10.5234 12.8418H11.5C11.7692 12.8418 11.9883 13.0608 11.9883 13.3301C11.9883 13.5997 11.7696 13.8184 11.5 13.8184H10.5234C10.2542 13.8184 10.0352 13.5993 10.0352 13.3301ZM1.26563 24.0234C1.45913 21.6045 3.06895 19.4059 5.23545 18.6834L7.29082 17.9985C7.66738 19.0397 8.13389 20.0518 8.68062 21.0131C8.68154 21.0148 8.68242 21.0165 8.68335 21.0181C8.68335 21.0181 8.6834 21.0181 8.6834 21.0182C9.08286 21.7208 9.53247 22.4073 10.0199 23.0591L10.6206 24.0234H1.26563ZM11.5 23.5882L10.8378 22.525C10.8304 22.5131 10.8225 22.5016 10.8141 22.4903C10.4187 21.9629 10.0498 21.4113 9.71387 20.8467L11.4552 19.0052L13.2901 20.84C12.9519 21.4087 12.5818 21.9626 12.186 22.4902C12.1621 22.5221 12.196 22.4719 11.5 23.5882ZM12.3794 24.0234L12.98 23.0592C13.4696 22.4049 13.9225 21.7128 14.3259 21.002C14.3284 20.9977 14.3307 20.9933 14.3331 20.989C14.3334 20.9884 14.3337 20.9879 14.334 20.9874C14.8738 20.0353 15.3354 19.032 15.7092 17.9985L17.7645 18.6834C19.9311 19.4059 21.5409 21.6045 21.7344 24.0234H12.3794Z" fill="#878787"/>
</svg>
