<svg viewBox="0 0 21 21" fill="none" xmlns="http://www.w3.org/2000/svg">
<path d="M12.95 12.25H12.565C12.4202 12.2503 12.2906 12.1599 12.2409 12.0239C12.1982 11.9119 12.1524 11.8024 12.103 11.6939C12.0417 11.5619 12.0697 11.4057 12.173 11.3033L12.4474 11.0285C12.8548 10.6176 12.854 9.95483 12.4456 9.54485L11.4566 8.55575C11.046 8.14765 10.3831 8.14765 9.97255 8.55575L9.69815 8.8298C9.59551 8.93274 9.43954 8.9607 9.30755 8.8998C9.19905 8.85045 9.0895 8.8046 8.97715 8.7598C8.84043 8.71041 8.74947 8.58038 8.75 8.435V8.05C8.75 7.47009 8.27991 7 7.7 7H6.3C5.72009 7 5.25 7.47009 5.25 8.05V8.435C5.25026 8.57981 5.15992 8.70936 5.0239 8.7591C4.9119 8.8018 4.80235 8.84765 4.69385 8.897C4.56186 8.95803 4.40584 8.93008 4.30325 8.827L4.0285 8.5526C3.61804 8.14476 2.95531 8.14476 2.54485 8.5526L1.55575 9.54485C1.14765 9.95536 1.14765 10.6183 1.55575 11.0289L1.8298 11.3033C1.93314 11.4057 1.96114 11.5619 1.8998 11.6939C1.85045 11.8024 1.8046 11.9119 1.76155 12.0243C1.71146 12.1611 1.58069 12.2515 1.435 12.25H1.05C0.470094 12.25 0 12.7201 0 13.3V14.7C0 15.2799 0.470094 15.75 1.05 15.75H1.435C1.57981 15.7497 1.70936 15.8401 1.7591 15.9761C1.8018 16.0881 1.84765 16.1977 1.897 16.3062C1.95834 16.4381 1.93034 16.5943 1.827 16.6968L1.5526 16.9715C1.14476 17.382 1.14476 18.0447 1.5526 18.4552L2.5417 19.4443C2.95221 19.8524 3.61519 19.8524 4.0257 19.4443L4.3001 19.1702C4.40274 19.0673 4.55871 19.0393 4.6907 19.1002C4.7992 19.1496 4.90875 19.1954 5.0211 19.2402C5.15852 19.289 5.25026 19.4192 5.25 19.565V19.95C5.25 20.5299 5.72009 21 6.3 21H7.7C8.27991 21 8.75 20.5299 8.75 19.95V19.565C8.74974 19.4202 8.84008 19.2906 8.9761 19.2409C9.0881 19.1982 9.19765 19.1524 9.30615 19.103C9.43814 19.042 9.59416 19.0699 9.69675 19.173L9.9715 19.4474C10.3825 19.8546 11.0451 19.8538 11.4551 19.4457L12.4443 18.4566C12.8524 18.046 12.8524 17.3831 12.4443 16.9726L12.1702 16.6982C12.0669 16.5957 12.0389 16.4395 12.1002 16.3076C12.1495 16.1991 12.1954 16.0895 12.2402 15.9772C12.2896 15.8404 12.4196 15.7495 12.565 15.75H12.95C13.5299 15.75 14 15.2799 14 14.7V13.3C14 12.7201 13.5299 12.25 12.95 12.25ZM13.3 14.7C13.3 14.8933 13.1433 15.05 12.95 15.05H12.565C12.1299 15.0516 11.7405 15.3206 11.585 15.7269C11.5479 15.8249 11.5078 15.9214 11.4646 16.0164C11.2847 16.4136 11.3681 16.8807 11.6746 17.191L11.9483 17.465C12.0851 17.6016 12.0852 17.8232 11.9486 17.96C11.9485 17.9601 11.9484 17.9602 11.9483 17.9603L10.9592 18.9494C10.8225 19.086 10.601 19.086 10.4643 18.9494L10.1899 18.6753C9.87976 18.3686 9.41251 18.2851 9.0153 18.4653C8.92045 18.5084 8.82385 18.5486 8.72655 18.5857C8.32051 18.7412 8.05175 19.1302 8.05 19.565V19.95C8.05 20.1433 7.89329 20.3 7.7 20.3H6.3C6.10671 20.3 5.95 20.1433 5.95 19.95V19.565C5.94838 19.1299 5.67945 18.7405 5.2731 18.585C5.1751 18.5479 5.07863 18.5078 4.98365 18.4646C4.5864 18.2847 4.11937 18.3683 3.80905 18.6746L3.535 18.9483C3.39841 19.0851 3.17677 19.0852 3.04001 18.9486C3.03992 18.9485 3.03984 18.9484 3.03975 18.9483L2.05065 17.9603C1.91402 17.8236 1.91402 17.602 2.05065 17.4654L2.3247 17.191C2.63117 16.8807 2.71464 16.4136 2.5347 16.0164C2.49165 15.9215 2.4514 15.8249 2.4143 15.7276C2.25916 15.3211 1.87005 15.0519 1.435 15.05H1.05C0.856712 15.05 0.7 14.8933 0.7 14.7V13.3C0.7 13.1067 0.856712 12.95 1.05 12.95H1.435C1.87009 12.9484 2.25947 12.6795 2.415 12.2731C2.4521 12.1751 2.49222 12.0786 2.5354 11.9837C2.71534 11.5864 2.63182 11.1193 2.3254 10.8091L2.0503 10.535C1.91354 10.3984 1.91341 10.1768 2.05004 10.04C2.05013 10.0399 2.05021 10.0398 2.0503 10.0398L3.0394 9.05065C3.17607 8.91402 3.39762 8.91402 3.5343 9.05065L3.8087 9.3247C4.11884 9.63143 4.58609 9.71495 4.9833 9.5347C5.07815 9.49165 5.17475 9.4514 5.27205 9.4143C5.67866 9.25929 5.94803 8.87014 5.95 8.435V8.05C5.95 7.85671 6.10671 7.7 6.3 7.7H7.7C7.89329 7.7 8.05 7.85671 8.05 8.05V8.435C8.05162 8.87009 8.32055 9.25947 8.7269 9.415C8.8249 9.4521 8.92137 9.49222 9.01635 9.5354C9.41356 9.71565 9.88081 9.63213 10.191 9.3254L10.465 9.0517C10.6022 8.91599 10.823 8.91599 10.9602 9.0517L11.9493 10.0408C12.086 10.1775 12.086 10.399 11.9493 10.5357L11.6753 10.8101C11.3689 11.1204 11.2854 11.5875 11.4653 11.9847C11.5083 12.0796 11.5486 12.1762 11.5857 12.2735C11.7412 12.6795 12.1302 12.9483 12.565 12.95H12.95C13.1433 12.95 13.3 13.1067 13.3 13.3V14.7Z" fill="#878787"/>
<path d="M10.1434 13.8601C10.1399 13.7761 10.134 13.6925 10.1238 13.6092C10.1126 13.5196 10.0993 13.4307 10.0808 13.3435C10.0685 13.2865 10.0524 13.2301 10.037 13.1734C10.0174 13.1013 9.9954 13.0302 9.9709 12.9602C9.95375 12.9116 9.9359 12.8633 9.9177 12.8154C9.87263 12.7033 9.8211 12.5938 9.76335 12.4877C9.7588 12.4797 9.756 12.471 9.75145 12.4629C9.6604 12.3008 9.55497 12.1472 9.43645 12.004C9.4263 11.9914 9.41475 11.9795 9.40425 11.9673C9.35595 11.9102 9.30625 11.8549 9.2541 11.8021C9.2268 11.7737 9.1981 11.7471 9.1694 11.7198C9.1344 11.6873 9.0994 11.6551 9.0644 11.6243C9.02192 11.5874 8.97865 11.5517 8.93455 11.5172L8.87715 11.4745C8.33557 11.0688 7.67708 10.8497 7.00045 10.8501C6.96545 10.8501 6.93045 10.8553 6.89545 10.8567C6.8209 10.8588 6.746 10.863 6.67075 10.8707C6.6312 10.8749 6.5913 10.8795 6.55175 10.8851C6.43765 10.9001 6.32442 10.9213 6.2126 10.9484C4.5273 11.3839 3.51414 13.1032 3.94963 14.7885C4.23663 15.8991 5.10428 16.766 6.21505 17.0521C6.22065 17.0521 6.2266 17.0539 6.23255 17.0553C6.35343 17.0854 6.47588 17.1088 6.59935 17.1253C6.6809 17.1354 6.76245 17.1375 6.84435 17.1414C6.89895 17.1442 6.94935 17.1522 7.0064 17.1522C7.10615 17.1522 7.20975 17.1456 7.31545 17.1351C7.32665 17.1351 7.33785 17.1319 7.35045 17.1305C7.4355 17.1211 7.5216 17.1085 7.60945 17.091C7.64445 17.0843 7.677 17.0756 7.7106 17.0679C7.7722 17.0535 7.83345 17.0385 7.89645 17.0199C7.94545 17.0052 7.99305 16.9881 8.041 16.9713C8.08895 16.9545 8.13865 16.9363 8.18835 16.9174C8.23805 16.8985 8.2797 16.8768 8.32485 16.8558C8.38365 16.8288 8.4421 16.8022 8.49985 16.7707H8.50195C8.82858 16.5958 9.13028 16.378 9.399 16.1229C9.47158 16.0551 9.53471 15.9779 9.5866 15.8933C9.85977 15.4553 10.0392 14.9655 10.1137 14.4548C10.1235 14.3872 10.1322 14.3197 10.1375 14.2507C10.1424 14.1874 10.1459 14.1244 10.1473 14.0614C10.1473 14.0414 10.1501 14.0225 10.1501 14.0026C10.1504 13.9532 10.1455 13.9077 10.1434 13.8601ZM9.4459 14.0894C9.4459 14.1184 9.44345 14.1475 9.4417 14.1762C9.4354 14.2609 9.42455 14.3456 9.4102 14.4306C9.27938 15.1583 8.82758 15.7883 8.1803 16.1456C8.1369 16.1684 8.0942 16.1897 8.0515 16.2093L8.02245 16.2233C7.8191 16.3156 7.60446 16.3806 7.38405 16.4165C7.36865 16.419 7.3529 16.4218 7.33715 16.4239C7.2934 16.4302 7.25035 16.4354 7.20765 16.4393C7.1513 16.4442 7.0946 16.447 7.03685 16.448C7.01235 16.448 6.9882 16.448 6.9637 16.448C6.88088 16.447 6.79819 16.4419 6.7159 16.4326L6.6739 16.4277C6.57765 16.4151 6.48218 16.3971 6.38795 16.3738C5.07711 16.0383 4.28646 14.7036 4.62194 13.3928C4.84362 12.5266 5.51955 11.85 6.3855 11.6274V11.6271C6.58657 11.5764 6.79307 11.5505 7.00045 11.5501C7.1005 11.5507 7.20047 11.5574 7.2997 11.5704C7.3263 11.5735 7.35255 11.5784 7.3788 11.5823C7.4544 11.5942 7.5293 11.6092 7.60315 11.6281C7.6273 11.6344 7.65145 11.64 7.67525 11.6467C7.86136 11.7004 8.04052 11.7758 8.209 11.8714C8.23595 11.8871 8.2622 11.9036 8.2888 11.92C8.3441 11.955 8.39765 11.99 8.4505 12.0299C8.47885 12.0506 8.50755 12.0709 8.53485 12.0929C8.60353 12.1478 8.66929 12.2062 8.7319 12.2679C8.75675 12.2931 8.7795 12.3208 8.80365 12.347C8.8439 12.3908 8.8831 12.4356 8.92055 12.4828C8.94645 12.5154 8.9713 12.549 8.9958 12.5829C9.0308 12.6333 9.0658 12.6858 9.0973 12.739C9.1148 12.7681 9.1323 12.7964 9.15015 12.8262C9.1953 12.9093 9.2355 12.9949 9.27055 13.0828C9.28455 13.1178 9.29645 13.1528 9.30905 13.1878C9.3318 13.2522 9.3514 13.3173 9.36855 13.3831C9.3773 13.4181 9.3871 13.4492 9.39445 13.4832C9.41488 13.5777 9.42971 13.6735 9.4389 13.7698C9.441 13.7954 9.441 13.8213 9.44275 13.8468C9.44765 13.9273 9.44905 14.0082 9.4459 14.0894Z" fill="#878787"/>
<path d="M19.9497 7.35H18.849C18.7022 7.35149 18.5709 7.25904 18.5228 7.1204C18.4142 6.79529 18.2829 6.47819 18.1297 6.17155C18.0647 6.03912 18.0918 5.87991 18.1969 5.7764L18.9774 4.99485C19.3871 4.58487 19.3871 3.92048 18.9774 3.5105L17.4892 2.02475C17.0792 1.61508 16.4148 1.61508 16.0049 2.02475L15.2247 2.80455C15.1213 2.90964 14.9623 2.93685 14.8299 2.8721C14.5232 2.71814 14.206 2.58611 13.8807 2.47695C13.7415 2.42931 13.6484 2.29788 13.6497 2.15075V1.05C13.6497 0.470094 13.1796 0 12.5997 0H10.4997C9.9198 0 9.4497 0.470094 9.4497 1.05V2.15075C9.45119 2.29753 9.35879 2.42883 9.2201 2.47695C8.89495 2.58606 8.57785 2.71801 8.27125 2.87175C8.13882 2.93698 7.97953 2.9099 7.8761 2.80455L7.09455 2.02405C6.68409 1.61556 6.02067 1.61556 5.6102 2.02405L4.1248 3.50945C3.71491 3.91948 3.71491 4.58413 4.1248 4.99415L5.27245 6.1439C5.41127 6.27839 5.63287 6.27489 5.76735 6.13603C5.89856 6.00058 5.89887 5.7855 5.76805 5.6497L4.6197 4.5003C4.48307 4.36363 4.48307 4.14208 4.6197 4.0054L6.1051 2.52C6.24178 2.38337 6.46333 2.38337 6.6 2.52L7.3819 3.3005C7.69826 3.61874 8.18301 3.69828 8.5845 3.4979C8.86175 3.35908 9.1484 3.23991 9.44235 3.14125C9.86664 2.99762 10.1515 2.59871 10.1497 2.15075V1.05C10.1497 0.856713 10.3064 0.7 10.4997 0.7H12.5997C12.793 0.7 12.9497 0.856713 12.9497 1.05V2.15075C12.9479 2.59862 13.2328 2.9974 13.6571 3.1409C13.9511 3.2396 14.2379 3.35886 14.5153 3.4979C14.9168 3.69723 15.4009 3.6176 15.7175 3.30015L16.4994 2.52C16.6361 2.38337 16.8576 2.38337 16.9943 2.52L18.4797 4.00575C18.6161 4.14238 18.6161 4.36367 18.4797 4.5003L17.6992 5.2822C17.3813 5.59873 17.3018 6.08326 17.5018 6.4848C17.6406 6.76204 17.7598 7.0487 17.8585 7.34265C18.002 7.76703 18.401 8.05193 18.849 8.05H19.9497C20.143 8.05 20.2997 8.20671 20.2997 8.4V10.5C20.2997 10.6933 20.143 10.85 19.9497 10.85H18.849C18.4011 10.8482 18.0023 11.1331 17.8588 11.5574C17.7601 11.8514 17.6408 12.1382 17.5018 12.4156C17.3021 12.8171 17.3818 13.3014 17.6996 13.6178L18.4801 14.3997C18.6167 14.5364 18.6167 14.7579 18.4801 14.8946L16.994 16.38C16.8573 16.5164 16.636 16.5164 16.4994 16.38L15.3493 15.2324C15.2148 15.0935 14.9932 15.09 14.8544 15.2245C14.7155 15.359 14.712 15.5806 14.8465 15.7194C14.8493 15.7223 14.8522 15.7252 14.8551 15.728L16.0049 16.8756C16.4148 17.2853 17.0792 17.2853 17.4892 16.8756L18.9746 15.3906C19.3845 14.9805 19.3845 14.3159 18.9746 13.9059L18.1952 13.125C18.0902 13.0216 18.063 12.8626 18.1276 12.7302C18.2816 12.4235 18.4136 12.1063 18.5228 11.781C18.5704 11.6418 18.7018 11.5487 18.849 11.55H19.9497C20.5296 11.55 20.9997 11.0799 20.9997 10.5V8.4C20.9997 7.8201 20.5296 7.35 19.9497 7.35Z" fill="#878787"/>
<path d="M14.767 6.23275C12.9891 4.45855 10.1105 4.45855 8.33261 6.23275C8.19834 6.37178 8.20219 6.59338 8.34123 6.72765C8.47685 6.85863 8.69188 6.85863 8.82751 6.72765C10.3209 5.21407 12.7585 5.19775 14.2721 6.69116C15.7857 8.18456 15.802 10.6222 14.3086 12.1358C14.2965 12.148 14.2844 12.1602 14.2721 12.1722C14.1331 12.3066 14.1292 12.5281 14.2635 12.6671C14.3979 12.8062 14.6194 12.81 14.7584 12.6757C14.7613 12.6729 14.7642 12.67 14.767 12.6671C16.5412 10.8892 16.5412 8.01066 14.767 6.23275Z" fill="#878787"/>
</svg>
