<svg class="card__title-icon" viewBox="0 0 21 21" fill="none" xmlns="http://www.w3.org/2000/svg">
<g clip-path="url(#clip0)">
<path d="M9.60108 19.3238H2.47749C2.21282 19.3238 1.97164 19.2011 1.8157 18.9872C1.65972 18.7731 1.61678 18.5058 1.69782 18.2537C2.50714 15.7375 4.9753 13.9802 7.69989 13.9802C8.96764 13.9802 10.1851 14.362 11.2206 15.0842C11.5915 15.3429 12.1018 15.2519 12.3606 14.881C12.6193 14.5101 12.5283 13.9998 12.1574 13.7411C11.6448 13.3835 11.0972 13.0919 10.5243 12.8692C11.2865 12.1762 11.7921 11.2058 11.88 10.1192C13.0357 8.99337 14.5506 8.3765 16.1745 8.3765C17.4422 8.3765 18.6597 8.75827 19.6952 9.48047C20.0661 9.73916 20.5765 9.64823 20.8352 9.27732C21.0939 8.90642 21.0029 8.39606 20.632 8.13734C20.1194 7.7798 19.5718 7.48814 18.9989 7.26547C19.8397 6.50102 20.3683 5.39901 20.3683 4.17584C20.3683 1.87331 18.495 0 16.1924 0C13.8898 0 12.0165 1.87331 12.0165 4.17592C12.0165 5.39413 12.5409 6.4922 13.3758 7.25628C13.2615 7.30025 13.1481 7.34701 13.0355 7.39655C12.5232 7.62202 12.0413 7.89879 11.5933 8.22437C10.9753 6.68977 9.47094 5.60376 7.71777 5.60376C5.41515 5.60376 3.54189 7.47707 3.54189 9.77968C3.54189 10.9943 4.06319 12.0895 4.89376 12.8533C2.67285 13.6856 0.872056 15.473 0.138943 17.7524C-0.104198 18.5083 0.0245913 19.31 0.492333 19.9518C0.959994 20.5935 1.68351 20.9615 2.47753 20.9615H9.60112C10.0534 20.9615 10.4199 20.5949 10.4199 20.1427C10.4199 19.6905 10.0533 19.3238 9.60108 19.3238ZM16.1925 1.63759C17.5921 1.63759 18.7308 2.77627 18.7308 4.17588C18.7308 5.5755 17.5921 6.71418 16.1925 6.71418C14.7928 6.71418 13.6542 5.5755 13.6542 4.17588C13.6542 2.77627 14.7928 1.63759 16.1925 1.63759ZM7.71781 7.24131C9.11743 7.24131 10.2561 8.37998 10.2561 9.7796C10.2561 11.1792 9.11743 12.3179 7.71781 12.3179C6.31819 12.3179 5.17952 11.1792 5.17952 9.7796C5.17952 8.37998 6.31819 7.24131 7.71781 7.24131Z" fill="#3563B7"/>
<path d="M13.1464 16.1464C12.9512 16.3417 12.9512 16.6583 13.1464 16.8536L16.3284 20.0355C16.5237 20.2308 16.8403 20.2308 17.0355 20.0355C17.2308 19.8403 17.2308 19.5237 17.0355 19.3284L14.2071 16.5L17.0355 13.6716C17.2308 13.4763 17.2308 13.1597 17.0355 12.9645C16.8403 12.7692 16.5237 12.7692 16.3284 12.9645L13.1464 16.1464ZM26.5 16L13.5 16L13.5 17L26.5 17L26.5 16Z" fill="#3563B7"/>
</g>
<defs>
<clipPath id="clip0">
<rect width="21" height="21" fill="white"/>
</clipPath>
</defs>
</svg>
