<?xml version="1.0" standalone="no"?>
<!DOCTYPE svg PUBLIC "-//W3C//DTD SVG 20010904//EN"
 "http://www.w3.org/TR/2001/REC-SVG-20010904/DTD/svg10.dtd">
<svg version="1.0" xmlns="http://www.w3.org/2000/svg"
 width="640.000000pt" height="640.000000pt" viewBox="0 0 640.000000 640.000000"
 preserveAspectRatio="xMidYMid meet">
<metadata>
Created by potrace 1.11, written by Peter Selinger 2001-2013
</metadata>
<g transform="translate(0.000000,640.000000) scale(0.100000,-0.100000)"
fill="#000000" stroke="none">
<path d="M1815 5601 l-1380 -798 0 -1603 0 -1603 1383 -799 1382 -798 1383
798 1382 799 0 1603 0 1603 -1375 795 c-756 437 -1379 796 -1385 797 -5 2
-631 -355 -1390 -794z m1537 -835 c280 -54 493 -259 574 -551 24 -84 28 -220
11 -312 -31 -161 -88 -268 -220 -411 -108 -116 -180 -216 -207 -289 -29 -77
-50 -211 -50 -317 0 -144 15 -136 -260 -136 -277 0 -255 -15 -263 175 -9 214
-43 313 -158 456 -174 217 -205 261 -239 334 -53 113 -70 191 -70 322 0 200
58 355 184 490 186 200 443 288 698 239z m171 -2101 c548 -64 949 -278 1102
-588 25 -51 52 -123 60 -162 20 -96 20 -244 -1 -273 l-15 -22 -1469 0 -1469 0
-15 22 c-40 56 -9 284 55 415 155 318 609 553 1179 612 141 14 435 12 573 -4z"/>
<path d="M3062 4661 c-126 -31 -216 -83 -313 -180 -94 -94 -136 -166 -165
-281 -20 -78 -22 -235 -5 -310 22 -93 84 -209 171 -315 141 -174 180 -227 208
-286 27 -57 28 -58 70 -58 39 -1 42 1 38 22 -3 12 -8 51 -11 86 -10 103 -51
244 -101 352 -54 114 -53 125 12 148 54 18 135 1 185 -39 33 -26 39 -28 50
-14 38 46 142 73 203 52 65 -22 66 -33 12 -147 -50 -108 -91 -249 -101 -352
-3 -35 -8 -74 -11 -86 -4 -22 -1 -23 53 -22 l58 0 27 58 c35 72 100 159 212
280 212 231 253 497 119 770 -53 107 -171 225 -274 274 -140 68 -289 84 -437
48z"/>
<path d="M3065 3687 c48 -109 95 -314 95 -413 0 -40 2 -44 24 -44 22 0 23 4
29 84 8 98 54 287 90 369 38 84 -11 70 -67 -20 -37 -61 -66 -59 -107 7 -29 47
-54 70 -78 70 -5 0 1 -24 14 -53z"/>
<path d="M3025 3073 c4 -32 10 -96 14 -143 l6 -85 155 0 155 0 6 85 c4 47 10
111 14 143 l7 57 -182 0 -182 0 7 -57z"/>
<path d="M3138 2518 l62 -63 62 63 63 62 -125 0 -125 0 63 -62z"/>
<path d="M2810 2550 c-333 -56 -600 -167 -780 -323 -140 -121 -230 -298 -230
-451 l0 -56 582 2 581 3 74 260 c40 143 81 289 90 323 l16 64 -99 99 c-54 54
-105 99 -114 98 -8 0 -62 -9 -120 -19z"/>
<path d="M3358 2473 c-54 -54 -98 -105 -98 -113 1 -8 38 -154 84 -325 l83
-310 586 -3 587 -2 0 63 c0 242 -170 467 -466 615 -154 77 -423 151 -609 168
l-70 6 -97 -99z"/>
<path d="M3132 1962 c-34 -125 -62 -230 -62 -234 0 -13 250 -10 250 3 0 17
-113 443 -119 451 -3 4 -34 -95 -69 -220z"/>
</g>
</svg>
